<?xml version="1.0" encoding="UTF-8"?>
<!DOCTYPE svg PUBLIC "-//W3C//DTD SVG 1.1//EN" "http://www.w3.org/Graphics/SVG/1.1/DTD/svg11.dtd">
<svg xmlns="http://www.w3.org/2000/svg" version="1.1" width="512px" height="512px" style="shape-rendering:geometricPrecision; text-rendering:geometricPrecision; image-rendering:optimizeQuality; fill-rule:evenodd; clip-rule:evenodd" xmlns:xlink="http://www.w3.org/1999/xlink">
<g><path style="opacity:1" fill="#eef2f4" d="M 271.5,67.5 C 270.505,79.6554 270.171,91.9887 270.5,104.5C 270.5,229.833 270.5,355.167 270.5,480.5C 239.167,480.5 207.833,480.5 176.5,480.5C 176.831,459.66 176.497,438.993 175.5,418.5C 158.833,418.5 142.167,418.5 125.5,418.5C 125.5,439.5 125.5,460.5 125.5,481.5C 93.6623,481.832 61.9956,481.498 30.5,480.5C 30.5,320.833 30.5,161.167 30.5,1.5C 110.833,1.5 191.167,1.5 271.5,1.5C 271.5,23.5 271.5,45.5 271.5,67.5 Z"/></g>
<g><path style="opacity:1" fill="#82cae8" d="M 104.5,37.5 C 90.5,37.5 76.5,37.5 62.5,37.5C 62.5,50.5 62.5,63.5 62.5,76.5C 76.5,76.5 90.5,76.5 104.5,76.5C 90.3431,77.4959 76.0097,77.8293 61.5,77.5C 61.5,63.8333 61.5,50.1667 61.5,36.5C 76.0097,36.1707 90.3431,36.5041 104.5,37.5 Z"/></g>
<g><path style="opacity:1" fill="#41b3e2" d="M 104.5,37.5 C 104.5,50.5 104.5,63.5 104.5,76.5C 90.5,76.5 76.5,76.5 62.5,76.5C 62.5,63.5 62.5,50.5 62.5,37.5C 76.5,37.5 90.5,37.5 104.5,37.5 Z"/></g>
<g><path style="opacity:1" fill="#a6d8ec" d="M 171.5,77.5 C 171.5,64.1667 171.5,50.8333 171.5,37.5C 157.5,37.5 143.5,37.5 129.5,37.5C 129.5,50.8333 129.5,64.1667 129.5,77.5C 128.504,64.0102 128.171,50.3435 128.5,36.5C 143.167,36.5 157.833,36.5 172.5,36.5C 172.829,50.3435 172.496,64.0102 171.5,77.5 Z"/></g>
<g><path style="opacity:1" fill="#42b3e2" d="M 171.5,77.5 C 157.5,77.5 143.5,77.5 129.5,77.5C 129.5,64.1667 129.5,50.8333 129.5,37.5C 143.5,37.5 157.5,37.5 171.5,37.5C 171.5,50.8333 171.5,64.1667 171.5,77.5 Z"/></g>
<g><path style="opacity:1" fill="#41b3e2" d="M 196.5,37.5 C 210.5,37.5 224.5,37.5 238.5,37.5C 238.5,50.5 238.5,63.5 238.5,76.5C 224.5,76.5 210.5,76.5 196.5,76.5C 196.5,63.5 196.5,50.5 196.5,37.5 Z"/></g>
<g><path style="opacity:1" fill="#71c4e7" d="M 196.5,37.5 C 210.657,36.5041 224.99,36.1707 239.5,36.5C 239.5,50.1667 239.5,63.8333 239.5,77.5C 224.99,77.8293 210.657,77.4959 196.5,76.5C 210.5,76.5 224.5,76.5 238.5,76.5C 238.5,63.5 238.5,50.5 238.5,37.5C 224.5,37.5 210.5,37.5 196.5,37.5 Z"/></g>
<g><path style="opacity:1" fill="#f0796c" d="M 271.5,67.5 C 341.178,91.5038 410.845,115.504 480.5,139.5C 480.5,152.167 480.5,164.833 480.5,177.5C 416.118,155.321 351.784,132.987 287.5,110.5C 281.822,108.497 276.156,106.497 270.5,104.5C 270.171,91.9887 270.505,79.6554 271.5,67.5 Z"/></g>
<g><path style="opacity:1" fill="#43b3e2" d="M 61.5,100.5 C 75.8333,100.5 90.1667,100.5 104.5,100.5C 104.5,113.833 104.5,127.167 104.5,140.5C 90.1667,140.5 75.8333,140.5 61.5,140.5C 61.5,127.167 61.5,113.833 61.5,100.5 Z"/></g>
<g><path style="opacity:1" fill="#41b3e2" d="M 129.5,100.5 C 143.5,100.5 157.5,100.5 171.5,100.5C 171.5,113.833 171.5,127.167 171.5,140.5C 157.5,140.5 143.5,140.5 129.5,140.5C 129.5,127.167 129.5,113.833 129.5,100.5 Z"/></g>
<g><path style="opacity:1" fill="#42b3e2" d="M 196.5,100.5 C 210.833,100.5 225.167,100.5 239.5,100.5C 239.5,113.833 239.5,127.167 239.5,140.5C 225.167,140.5 210.833,140.5 196.5,140.5C 196.5,127.167 196.5,113.833 196.5,100.5 Z"/></g>
<g><path style="opacity:1" fill="#c9c9c9" d="M 270.5,104.5 C 276.156,106.497 281.822,108.497 287.5,110.5C 287.5,233.833 287.5,357.167 287.5,480.5C 351.833,480.5 416.167,480.5 480.5,480.5C 410.669,481.499 340.669,481.833 270.5,481.5C 270.5,481.167 270.5,480.833 270.5,480.5C 270.5,355.167 270.5,229.833 270.5,104.5 Z"/></g>
<g><path style="opacity:1" fill="#dadedf" d="M 287.5,110.5 C 351.784,132.987 416.118,155.321 480.5,177.5C 480.5,182.833 480.5,188.167 480.5,193.5C 427.833,193.5 375.167,193.5 322.5,193.5C 322.5,201.167 322.5,208.833 322.5,216.5C 375.167,216.5 427.833,216.5 480.5,216.5C 480.5,224.833 480.5,233.167 480.5,241.5C 427.833,241.5 375.167,241.5 322.5,241.5C 321.508,248.982 321.175,256.648 321.5,264.5C 374.5,264.5 427.5,264.5 480.5,264.5C 480.5,272.5 480.5,280.5 480.5,288.5C 427.5,288.5 374.5,288.5 321.5,288.5C 321.175,296.352 321.508,304.018 322.5,311.5C 375.167,311.5 427.833,311.5 480.5,311.5C 480.5,319.833 480.5,328.167 480.5,336.5C 427.833,336.5 375.167,336.5 322.5,336.5C 322.5,344.167 322.5,351.833 322.5,359.5C 375.167,359.5 427.833,359.5 480.5,359.5C 480.5,367.833 480.5,376.167 480.5,384.5C 427.833,384.5 375.167,384.5 322.5,384.5C 322.5,392.167 322.5,399.833 322.5,407.5C 375.167,407.5 427.833,407.5 480.5,407.5C 480.5,415.833 480.5,424.167 480.5,432.5C 427.833,432.5 375.167,432.5 322.5,432.5C 322.5,440.167 322.5,447.833 322.5,455.5C 375.167,455.5 427.833,455.5 480.5,455.5C 480.5,463.833 480.5,472.167 480.5,480.5C 416.167,480.5 351.833,480.5 287.5,480.5C 287.5,357.167 287.5,233.833 287.5,110.5 Z"/></g>
<g><path style="opacity:1" fill="#41b3e2" d="M 62.5,163.5 C 76.5,163.5 90.5,163.5 104.5,163.5C 104.5,176.833 104.5,190.167 104.5,203.5C 90.5,203.5 76.5,203.5 62.5,203.5C 62.5,190.167 62.5,176.833 62.5,163.5 Z"/></g>
<g><path style="opacity:1" fill="#41b3e2" d="M 129.5,163.5 C 143.5,163.5 157.5,163.5 171.5,163.5C 171.5,176.833 171.5,190.167 171.5,203.5C 157.5,203.5 143.5,203.5 129.5,203.5C 129.5,190.167 129.5,176.833 129.5,163.5 Z"/></g>
<g><path style="opacity:1" fill="#42b3e2" d="M 196.5,163.5 C 210.833,163.5 225.167,163.5 239.5,163.5C 239.5,176.833 239.5,190.167 239.5,203.5C 225.167,203.5 210.833,203.5 196.5,203.5C 196.5,190.167 196.5,176.833 196.5,163.5 Z"/></g>
<g><path style="opacity:1" fill="#42b3e2" d="M 480.5,193.5 C 480.5,201.167 480.5,208.833 480.5,216.5C 427.833,216.5 375.167,216.5 322.5,216.5C 322.5,208.833 322.5,201.167 322.5,193.5C 375.167,193.5 427.833,193.5 480.5,193.5 Z"/></g>
<g><path style="opacity:1" fill="#9ed5eb" d="M 62.5,163.5 C 62.5,176.833 62.5,190.167 62.5,203.5C 76.5,203.5 90.5,203.5 104.5,203.5C 90.3431,204.496 76.0097,204.829 61.5,204.5C 61.171,190.656 61.5043,176.99 62.5,163.5 Z"/></g>
<g><path style="opacity:1" fill="#8ccee9" d="M 104.5,227.5 C 90.5,227.5 76.5,227.5 62.5,227.5C 62.5,240.833 62.5,254.167 62.5,267.5C 61.5043,254.01 61.171,240.344 61.5,226.5C 76.0097,226.171 90.3431,226.504 104.5,227.5 Z"/></g>
<g><path style="opacity:1" fill="#42b3e2" d="M 104.5,227.5 C 104.5,240.833 104.5,254.167 104.5,267.5C 90.5,267.5 76.5,267.5 62.5,267.5C 62.5,254.167 62.5,240.833 62.5,227.5C 76.5,227.5 90.5,227.5 104.5,227.5 Z"/></g>
<g><path style="opacity:1" fill="#aadaed" d="M 171.5,267.5 C 171.5,254.167 171.5,240.833 171.5,227.5C 157.5,227.5 143.5,227.5 129.5,227.5C 129.5,240.833 129.5,254.167 129.5,267.5C 128.504,254.01 128.171,240.344 128.5,226.5C 143.167,226.5 157.833,226.5 172.5,226.5C 172.829,240.344 172.496,254.01 171.5,267.5 Z"/></g>
<g><path style="opacity:1" fill="#42b3e2" d="M 171.5,267.5 C 157.5,267.5 143.5,267.5 129.5,267.5C 129.5,254.167 129.5,240.833 129.5,227.5C 143.5,227.5 157.5,227.5 171.5,227.5C 171.5,240.833 171.5,254.167 171.5,267.5 Z"/></g>
<g><path style="opacity:1" fill="#41b3e2" d="M 196.5,227.5 C 210.5,227.5 224.5,227.5 238.5,227.5C 238.5,240.5 238.5,253.5 238.5,266.5C 224.5,266.5 210.5,266.5 196.5,266.5C 196.5,253.5 196.5,240.5 196.5,227.5 Z"/></g>
<g><path style="opacity:1" fill="#41b3e2" d="M 322.5,241.5 C 375.167,241.5 427.833,241.5 480.5,241.5C 480.5,248.833 480.5,256.167 480.5,263.5C 427.833,263.5 375.167,263.5 322.5,263.5C 322.5,256.167 322.5,248.833 322.5,241.5 Z"/></g>
<g><path style="opacity:1" fill="#83c5e0" d="M 322.5,241.5 C 322.5,248.833 322.5,256.167 322.5,263.5C 375.167,263.5 427.833,263.5 480.5,263.5C 480.5,263.833 480.5,264.167 480.5,264.5C 427.5,264.5 374.5,264.5 321.5,264.5C 321.175,256.648 321.508,248.982 322.5,241.5 Z"/></g>
<g><path style="opacity:1" fill="#72c5e7" d="M 196.5,227.5 C 210.657,226.504 224.99,226.171 239.5,226.5C 239.5,240.167 239.5,253.833 239.5,267.5C 224.99,267.829 210.657,267.496 196.5,266.5C 210.5,266.5 224.5,266.5 238.5,266.5C 238.5,253.5 238.5,240.5 238.5,227.5C 224.5,227.5 210.5,227.5 196.5,227.5 Z"/></g>
<g><path style="opacity:1" fill="#91cae0" d="M 480.5,288.5 C 480.5,288.833 480.5,289.167 480.5,289.5C 427.833,289.5 375.167,289.5 322.5,289.5C 322.5,296.833 322.5,304.167 322.5,311.5C 321.508,304.018 321.175,296.352 321.5,288.5C 374.5,288.5 427.5,288.5 480.5,288.5 Z"/></g>
<g><path style="opacity:1" fill="#41b3e2" d="M 480.5,289.5 C 480.5,296.833 480.5,304.167 480.5,311.5C 427.833,311.5 375.167,311.5 322.5,311.5C 322.5,304.167 322.5,296.833 322.5,289.5C 375.167,289.5 427.833,289.5 480.5,289.5 Z"/></g>
<g><path style="opacity:1" fill="#43b3e2" d="M 61.5,290.5 C 75.8333,290.5 90.1667,290.5 104.5,290.5C 104.5,303.833 104.5,317.167 104.5,330.5C 90.1667,330.5 75.8333,330.5 61.5,330.5C 61.5,317.167 61.5,303.833 61.5,290.5 Z"/></g>
<g><path style="opacity:1" fill="#41b3e2" d="M 129.5,290.5 C 143.5,290.5 157.5,290.5 171.5,290.5C 171.5,303.833 171.5,317.167 171.5,330.5C 157.5,330.5 143.5,330.5 129.5,330.5C 129.5,317.167 129.5,303.833 129.5,290.5 Z"/></g>
<g><path style="opacity:1" fill="#42b3e2" d="M 196.5,290.5 C 210.833,290.5 225.167,290.5 239.5,290.5C 239.5,303.833 239.5,317.167 239.5,330.5C 225.167,330.5 210.833,330.5 196.5,330.5C 196.5,317.167 196.5,303.833 196.5,290.5 Z"/></g>
<g><path style="opacity:1" fill="#42b3e2" d="M 480.5,336.5 C 480.5,344.167 480.5,351.833 480.5,359.5C 427.833,359.5 375.167,359.5 322.5,359.5C 322.5,351.833 322.5,344.167 322.5,336.5C 375.167,336.5 427.833,336.5 480.5,336.5 Z"/></g>
<g><path style="opacity:1" fill="#42b3e2" d="M 62.5,353.5 C 76.5,353.5 90.5,353.5 104.5,353.5C 104.5,366.833 104.5,380.167 104.5,393.5C 90.5,393.5 76.5,393.5 62.5,393.5C 62.5,380.167 62.5,366.833 62.5,353.5 Z"/></g>
<g><path style="opacity:1" fill="#41b3e2" d="M 196.5,354.5 C 210.5,354.5 224.5,354.5 238.5,354.5C 238.5,367.5 238.5,380.5 238.5,393.5C 224.5,393.5 210.5,393.5 196.5,393.5C 196.5,380.5 196.5,367.5 196.5,354.5 Z"/></g>
<g><path style="opacity:1" fill="#72c4e7" d="M 196.5,354.5 C 210.657,353.504 224.99,353.171 239.5,353.5C 239.5,367.167 239.5,380.833 239.5,394.5C 224.99,394.829 210.657,394.496 196.5,393.5C 210.5,393.5 224.5,393.5 238.5,393.5C 238.5,380.5 238.5,367.5 238.5,354.5C 224.5,354.5 210.5,354.5 196.5,354.5 Z"/></g>
<g><path style="opacity:1" fill="#41b3e2" d="M 480.5,384.5 C 480.5,392.167 480.5,399.833 480.5,407.5C 427.833,407.5 375.167,407.5 322.5,407.5C 322.5,399.833 322.5,392.167 322.5,384.5C 375.167,384.5 427.833,384.5 480.5,384.5 Z"/></g>
<g><path style="opacity:1" fill="#93d0ea" d="M 62.5,353.5 C 62.5,366.833 62.5,380.167 62.5,393.5C 76.5,393.5 90.5,393.5 104.5,393.5C 90.3431,394.496 76.0097,394.829 61.5,394.5C 61.171,380.656 61.5043,366.99 62.5,353.5 Z"/></g>
<g><path style="opacity:1" fill="#a5d8ec" d="M 129.5,353.5 C 129.5,366.833 129.5,380.167 129.5,393.5C 143.5,393.5 157.5,393.5 171.5,393.5C 171.5,380.167 171.5,366.833 171.5,353.5C 172.496,366.99 172.829,380.656 172.5,394.5C 157.833,394.5 143.167,394.5 128.5,394.5C 128.171,380.656 128.504,366.99 129.5,353.5 Z"/></g>
<g><path style="opacity:1" fill="#42b3e2" d="M 129.5,353.5 C 143.5,353.5 157.5,353.5 171.5,353.5C 171.5,366.833 171.5,380.167 171.5,393.5C 157.5,393.5 143.5,393.5 129.5,393.5C 129.5,380.167 129.5,366.833 129.5,353.5 Z"/></g>
<g><path style="opacity:1" fill="#8ccee9" d="M 104.5,417.5 C 90.5,417.5 76.5,417.5 62.5,417.5C 62.5,430.833 62.5,444.167 62.5,457.5C 61.5043,444.01 61.171,430.344 61.5,416.5C 76.0097,416.171 90.3431,416.504 104.5,417.5 Z"/></g>
<g><path style="opacity:1" fill="#42b3e2" d="M 104.5,417.5 C 104.5,430.833 104.5,444.167 104.5,457.5C 90.5,457.5 76.5,457.5 62.5,457.5C 62.5,444.167 62.5,430.833 62.5,417.5C 76.5,417.5 90.5,417.5 104.5,417.5 Z"/></g>
<g><path style="opacity:1" fill="#41b3e2" d="M 196.5,417.5 C 210.5,417.5 224.5,417.5 238.5,417.5C 238.5,430.5 238.5,443.5 238.5,456.5C 224.5,456.5 210.5,456.5 196.5,456.5C 196.5,443.5 196.5,430.5 196.5,417.5 Z"/></g>
<g><path style="opacity:1" fill="#445c6c" d="M 175.5,418.5 C 175.5,439.5 175.5,460.5 175.5,481.5C 158.833,481.5 142.167,481.5 125.5,481.5C 125.5,460.5 125.5,439.5 125.5,418.5C 142.167,418.5 158.833,418.5 175.5,418.5 Z"/></g>
<g><path style="opacity:1" fill="#43b3e2" d="M 480.5,432.5 C 480.5,440.167 480.5,447.833 480.5,455.5C 427.833,455.5 375.167,455.5 322.5,455.5C 322.5,447.833 322.5,440.167 322.5,432.5C 375.167,432.5 427.833,432.5 480.5,432.5 Z"/></g>
<g><path style="opacity:1" fill="#72c5e7" d="M 196.5,417.5 C 210.657,416.504 224.99,416.171 239.5,416.5C 239.5,430.167 239.5,443.833 239.5,457.5C 224.99,457.829 210.657,457.496 196.5,456.5C 210.5,456.5 224.5,456.5 238.5,456.5C 238.5,443.5 238.5,430.5 238.5,417.5C 224.5,417.5 210.5,417.5 196.5,417.5 Z"/></g>
<g><path style="opacity:0.997" fill="#788c9a" d="M 30.5,480.5 C 61.9956,481.498 93.6623,481.832 125.5,481.5C 142.167,481.5 158.833,481.5 175.5,481.5C 207.167,481.5 238.833,481.5 270.5,481.5C 340.669,481.833 410.669,481.499 480.5,480.5C 490.167,480.5 499.833,480.5 509.5,480.5C 509.5,490.167 509.5,499.833 509.5,509.5C 340.167,509.5 170.833,509.5 1.5,509.5C 1.5,499.833 1.5,490.167 1.5,480.5C 11.1667,480.5 20.8333,480.5 30.5,480.5 Z"/></g>
<g><path style="opacity:0.843" fill="#d6dce1" d="M 175.5,418.5 C 176.497,438.993 176.831,459.66 176.5,480.5C 207.833,480.5 239.167,480.5 270.5,480.5C 270.5,480.833 270.5,481.167 270.5,481.5C 238.833,481.5 207.167,481.5 175.5,481.5C 175.5,460.5 175.5,439.5 175.5,418.5 Z"/></g>
</svg>
