<?xml version="1.0" encoding="UTF-8"?>
<!DOCTYPE svg PUBLIC "-//W3C//DTD SVG 1.1//EN" "http://www.w3.org/Graphics/SVG/1.1/DTD/svg11.dtd">
<svg xmlns="http://www.w3.org/2000/svg" version="1.1" width="512px" height="512px" style="shape-rendering:geometricPrecision; text-rendering:geometricPrecision; image-rendering:optimizeQuality; fill-rule:evenodd; clip-rule:evenodd" xmlns:xlink="http://www.w3.org/1999/xlink">
<g><path style="opacity:0.971" fill="#707070" d="M 226.5,228.5 C 217.983,228.174 209.65,228.507 201.5,229.5C 181.25,201.402 160.75,173.402 140,145.5C 124.942,128.683 108.775,127.517 91.5,142C 77.6361,154.918 75.8028,169.418 86,185.5C 106.665,213.659 127.498,241.659 148.5,269.5C 151.383,276.552 156.216,281.885 163,285.5C 163.902,285.257 164.735,284.923 165.5,284.5C 165.577,285.75 166.244,286.583 167.5,287C 185.154,290.506 198.82,284.673 208.5,269.5C 214.297,270.821 219.963,272.654 225.5,275C 226.942,275.377 227.942,276.21 228.5,277.5C 213.162,303 190.829,313 161.5,307.5C 154.24,303.571 147.24,299.237 140.5,294.5C 113.609,259.061 87.442,223.061 62,186.5C 52.8226,156.69 61.6559,133.856 88.5,118C 114.604,105.443 137.104,109.943 156,131.5C 179.743,163.73 203.243,196.063 226.5,228.5 Z"/></g>
<g><path style="opacity:0.984" fill="#aeaeaf" d="M 345.5,365.5 C 338.038,364.942 330.705,363.608 323.5,361.5C 318.395,358.108 313.062,354.941 307.5,352C 291.174,338.521 284.84,321.355 288.5,300.5C 295.663,302.214 302.33,304.881 308.5,308.5C 308.359,323.218 315.026,333.551 328.5,339.5C 335.126,345.33 342.46,346.663 350.5,343.5C 359.445,341.388 366.279,336.388 371,328.5C 391.52,293.459 411.52,258.126 431,222.5C 433.42,211.098 430.586,201.265 422.5,193C 417.094,189.268 411.427,185.935 405.5,183C 393.546,179.543 383.046,182.043 374,190.5C 365.903,203.696 358.07,217.03 350.5,230.5C 342.734,229.863 335.067,229.196 327.5,228.5C 336.887,210.729 347.054,193.395 358,176.5C 373.486,161.467 391.652,156.967 412.5,163C 445.339,175.178 457.839,198.345 450,232.5C 429.586,268.996 408.92,305.329 388,341.5C 377.959,356.609 363.792,364.609 345.5,365.5 Z M 308.5,308.5 C 322.037,312.886 329.37,322.219 330.5,336.5C 330.36,338.03 329.693,339.03 328.5,339.5C 315.026,333.551 308.359,323.218 308.5,308.5 Z"/></g>
<g><path style="opacity:1" fill="#aaaaaa" d="M 260.5,183.5 C 267.167,183.5 273.833,183.5 280.5,183.5C 280.5,198.5 280.5,213.5 280.5,228.5C 280.5,235.5 280.5,242.5 280.5,249.5C 280.5,257.833 280.5,266.167 280.5,274.5C 280.5,282.167 280.5,289.833 280.5,297.5C 274.914,294.971 269.247,292.638 263.5,290.5C 263.189,289.522 262.522,288.855 261.5,288.5C 260.503,281.197 260.169,273.863 260.5,266.5C 260.5,238.833 260.5,211.167 260.5,183.5 Z"/></g>
<g><path style="opacity:0.966" fill="#bebebe" d="M 260.5,183.5 C 260.5,211.167 260.5,238.833 260.5,266.5C 260.167,266.5 259.833,266.5 259.5,266.5C 259.5,260.833 259.5,255.167 259.5,249.5C 250.833,249.5 242.167,249.5 233.5,249.5C 226.266,248.802 218.933,248.136 211.5,247.5C 207.738,241.738 204.404,235.738 201.5,229.5C 209.65,228.507 217.983,228.174 226.5,228.5C 237.5,228.5 248.5,228.5 259.5,228.5C 259.171,213.324 259.504,198.324 260.5,183.5 Z"/></g>
<g><path style="opacity:0.969" fill="#bbbbbb" d="M 280.5,228.5 C 296.167,228.5 311.833,228.5 327.5,228.5C 335.067,229.196 342.734,229.863 350.5,230.5C 346.819,236.536 343.152,242.536 339.5,248.5C 331.082,248.198 322.748,248.531 314.5,249.5C 303.167,249.5 291.833,249.5 280.5,249.5C 280.5,242.5 280.5,235.5 280.5,228.5 Z"/></g>
<g><path style="opacity:0.963" fill="#7d7d7d" d="M 211.5,247.5 C 218.933,248.136 226.266,248.802 233.5,249.5C 234.113,252.009 234.78,254.509 235.5,257C 243.568,260.077 251.568,263.243 259.5,266.5C 259.833,266.5 260.167,266.5 260.5,266.5C 260.169,273.863 260.503,281.197 261.5,288.5C 262.522,288.855 263.189,289.522 263.5,290.5C 251.932,285.882 240.265,281.549 228.5,277.5C 227.942,276.21 226.942,275.377 225.5,275C 219.963,272.654 214.297,270.821 208.5,269.5C 189.371,260.765 175.038,265.765 165.5,284.5C 164.735,284.923 163.902,285.257 163,285.5C 156.216,281.885 151.383,276.552 148.5,269.5C 154.189,258.283 163.189,250.783 175.5,247C 187.578,243.54 199.578,243.707 211.5,247.5 Z"/></g>
<g><path style="opacity:0.989" fill="#aeaeaf" d="M 339.5,248.5 C 332.167,261.833 324.833,275.167 317.5,288.5C 309.876,287.177 302.876,284.51 296.5,280.5C 302.737,270.366 308.737,260.033 314.5,249.5C 322.748,248.531 331.082,248.198 339.5,248.5 Z"/></g>
<g><path style="opacity:0.967" fill="#7d7d7d" d="M 280.5,274.5 C 285.751,276.695 291.084,278.695 296.5,280.5C 302.876,284.51 309.876,287.177 317.5,288.5C 341.361,299.045 352.361,317.378 350.5,343.5C 342.46,346.663 335.126,345.33 328.5,339.5C 329.693,339.03 330.36,338.03 330.5,336.5C 329.37,322.219 322.037,312.886 308.5,308.5C 302.33,304.881 295.663,302.214 288.5,300.5C 285.993,299.108 283.327,298.108 280.5,297.5C 280.5,289.833 280.5,282.167 280.5,274.5 Z"/></g>
<g><path style="opacity:0.956" fill="#7d7d7d" d="M 140.5,294.5 C 147.24,299.237 154.24,303.571 161.5,307.5C 162.663,317.167 167.33,324.667 175.5,330C 213.5,346 251.5,362 289.5,378C 299.962,380.364 309.295,378.031 317.5,371C 320.146,368.198 322.146,365.032 323.5,361.5C 330.705,363.608 338.038,364.942 345.5,365.5C 331.443,395.861 308.443,406.028 276.5,396C 241.833,381.333 207.167,366.667 172.5,352C 148.207,340.594 137.541,321.427 140.5,294.5 Z"/></g>
</svg>
